<mxfile host="app.diagrams.net" modified="2023-12-06T03:48:28.339Z" agent="Mozilla/5.0 (Windows NT 10.0; Win64; x64) AppleWebKit/537.36 (KHTML, like Gecko) Chrome/119.0.0.0 Safari/537.36" etag="paTAGGjTnBG_at3yY9K1" version="22.1.5" type="device">
  <diagram name="Page-1" id="-krOig79hkJ82ZUgCSBC">
    <mxGraphModel dx="1618" dy="972" grid="1" gridSize="10" guides="1" tooltips="1" connect="1" arrows="1" fold="1" page="1" pageScale="1" pageWidth="1169" pageHeight="827" math="0" shadow="0">
      <root>
        <mxCell id="0" />
        <mxCell id="1" parent="0" />
        <mxCell id="GmR0d216pOpwCIbNAV7s-1" value="&lt;font style=&quot;font-size: 14px;&quot;&gt;&lt;b&gt;Surat Masuk&lt;/b&gt;&lt;/font&gt;" style="ellipse;whiteSpace=wrap;html=1;aspect=fixed;" parent="1" vertex="1">
          <mxGeometry x="370" y="270" width="80" height="80" as="geometry" />
        </mxCell>
        <mxCell id="GmR0d216pOpwCIbNAV7s-2" value="&lt;font style=&quot;font-size: 14px;&quot;&gt;&lt;b&gt;Surat Keluar&lt;/b&gt;&lt;/font&gt;" style="ellipse;whiteSpace=wrap;html=1;aspect=fixed;" parent="1" vertex="1">
          <mxGeometry x="710" y="270" width="80" height="80" as="geometry" />
        </mxCell>
        <mxCell id="GmR0d216pOpwCIbNAV7s-3" value="&lt;font style=&quot;font-size: 14px;&quot;&gt;&lt;b&gt;Arsip&lt;/b&gt;&lt;/font&gt;" style="rounded=1;whiteSpace=wrap;html=1;" parent="1" vertex="1">
          <mxGeometry x="520" y="230" width="130" height="30" as="geometry" />
        </mxCell>
        <mxCell id="GmR0d216pOpwCIbNAV7s-4" value="&lt;font style=&quot;font-size: 14px;&quot;&gt;&lt;b&gt;Persuratan TU&lt;br&gt;(Admin)&lt;br&gt;&lt;/b&gt;&lt;/font&gt;" style="rounded=0;whiteSpace=wrap;html=1;" parent="1" vertex="1">
          <mxGeometry x="530" y="540" width="101" height="76" as="geometry" />
        </mxCell>
        <mxCell id="GmR0d216pOpwCIbNAV7s-5" value="" style="endArrow=classic;html=1;rounded=0;fillColor=#f8cecc;strokeColor=#ff0000;" parent="1" edge="1">
          <mxGeometry width="50" height="50" relative="1" as="geometry">
            <mxPoint x="550" y="530" as="sourcePoint" />
            <mxPoint x="460" y="320" as="targetPoint" />
            <Array as="points">
              <mxPoint x="550" y="320" />
            </Array>
          </mxGeometry>
        </mxCell>
        <mxCell id="GmR0d216pOpwCIbNAV7s-6" value="Mendatakan &lt;br&gt;Surat Masuk" style="edgeLabel;html=1;align=right;verticalAlign=middle;resizable=0;points=[];" parent="GmR0d216pOpwCIbNAV7s-5" vertex="1" connectable="0">
          <mxGeometry x="0.3767" y="-1" relative="1" as="geometry">
            <mxPoint x="25" y="26" as="offset" />
          </mxGeometry>
        </mxCell>
        <mxCell id="GmR0d216pOpwCIbNAV7s-7" value="" style="endArrow=classic;html=1;rounded=0;strokeColor=#006600;" parent="1" edge="1">
          <mxGeometry width="50" height="50" relative="1" as="geometry">
            <mxPoint x="580" y="530" as="sourcePoint" />
            <mxPoint x="580" y="270" as="targetPoint" />
            <Array as="points" />
          </mxGeometry>
        </mxCell>
        <mxCell id="GmR0d216pOpwCIbNAV7s-8" value="Dokumentasi&lt;br&gt;Surat Masuk&amp;nbsp;" style="edgeLabel;html=1;align=left;verticalAlign=middle;resizable=0;points=[];strokeColor=#ff0000;" parent="GmR0d216pOpwCIbNAV7s-7" vertex="1" connectable="0">
          <mxGeometry x="0.3767" y="-1" relative="1" as="geometry">
            <mxPoint x="-21" y="39" as="offset" />
          </mxGeometry>
        </mxCell>
        <mxCell id="GmR0d216pOpwCIbNAV7s-9" value="&lt;font style=&quot;font-size: 14px;&quot;&gt;&lt;b&gt;Tata Usaha&lt;br&gt;(User)&lt;br&gt;&lt;/b&gt;&lt;/font&gt;" style="rounded=0;whiteSpace=wrap;html=1;" parent="1" vertex="1">
          <mxGeometry x="673" y="102" width="117" height="66" as="geometry" />
        </mxCell>
        <mxCell id="GmR0d216pOpwCIbNAV7s-10" value="" style="endArrow=classic;html=1;rounded=0;strokeColor=#00BA00;" parent="1" edge="1">
          <mxGeometry width="50" height="50" relative="1" as="geometry">
            <mxPoint x="610" y="220" as="sourcePoint" />
            <mxPoint x="660" y="130" as="targetPoint" />
            <Array as="points">
              <mxPoint x="610" y="220" />
              <mxPoint x="610" y="130" />
            </Array>
          </mxGeometry>
        </mxCell>
        <mxCell id="GmR0d216pOpwCIbNAV7s-14" value="" style="endArrow=classic;html=1;rounded=0;strokeColor=#0066CC;" parent="1" edge="1">
          <mxGeometry width="50" height="50" relative="1" as="geometry">
            <mxPoint x="640" y="570" as="sourcePoint" />
            <mxPoint x="700" y="320" as="targetPoint" />
            <Array as="points">
              <mxPoint x="680" y="570" />
              <mxPoint x="680" y="320" />
            </Array>
          </mxGeometry>
        </mxCell>
        <mxCell id="GmR0d216pOpwCIbNAV7s-15" value="Membuat &lt;br&gt;Surat" style="edgeLabel;html=1;align=center;verticalAlign=middle;resizable=0;points=[];" parent="GmR0d216pOpwCIbNAV7s-14" vertex="1" connectable="0">
          <mxGeometry x="-0.0467" y="1" relative="1" as="geometry">
            <mxPoint y="87" as="offset" />
          </mxGeometry>
        </mxCell>
        <mxCell id="GmR0d216pOpwCIbNAV7s-16" value="" style="endArrow=classic;html=1;rounded=0;strokeColor=#4687c9;fillColor=#647687;" parent="1" edge="1">
          <mxGeometry width="50" height="50" relative="1" as="geometry">
            <mxPoint x="760" y="360" as="sourcePoint" />
            <mxPoint x="640" y="610" as="targetPoint" />
            <Array as="points">
              <mxPoint x="760" y="610" />
            </Array>
          </mxGeometry>
        </mxCell>
        <mxCell id="GmR0d216pOpwCIbNAV7s-17" value="Surat Tugas" style="edgeLabel;html=1;align=center;verticalAlign=middle;resizable=0;points=[];" parent="GmR0d216pOpwCIbNAV7s-16" vertex="1" connectable="0">
          <mxGeometry x="-0.1698" relative="1" as="geometry">
            <mxPoint y="-44" as="offset" />
          </mxGeometry>
        </mxCell>
        <mxCell id="GmR0d216pOpwCIbNAV7s-18" value="" style="endArrow=none;html=1;rounded=0;strokeWidth=5;strokeColor=#40cb40;" parent="1" edge="1">
          <mxGeometry width="50" height="50" relative="1" as="geometry">
            <mxPoint x="910" y="164.57999999999993" as="sourcePoint" />
            <mxPoint x="960" y="164.57999999999993" as="targetPoint" />
          </mxGeometry>
        </mxCell>
        <mxCell id="GmR0d216pOpwCIbNAV7s-19" value="" style="endArrow=none;html=1;rounded=0;strokeWidth=5;strokeColor=#FF0000;" parent="1" edge="1">
          <mxGeometry width="50" height="50" relative="1" as="geometry">
            <mxPoint x="910" y="84.57999999999998" as="sourcePoint" />
            <mxPoint x="960" y="84.57999999999998" as="targetPoint" />
          </mxGeometry>
        </mxCell>
        <mxCell id="GmR0d216pOpwCIbNAV7s-20" value="" style="endArrow=none;html=1;rounded=0;strokeWidth=5;strokeColor=#0066CC;" parent="1" edge="1">
          <mxGeometry width="50" height="50" relative="1" as="geometry">
            <mxPoint x="910" y="124.57999999999998" as="sourcePoint" />
            <mxPoint x="960" y="124.57999999999998" as="targetPoint" />
          </mxGeometry>
        </mxCell>
        <mxCell id="GmR0d216pOpwCIbNAV7s-21" value="" style="endArrow=classic;html=1;rounded=0;strokeColor=#006600;" parent="1" edge="1">
          <mxGeometry width="50" height="50" relative="1" as="geometry">
            <mxPoint x="600" y="530" as="sourcePoint" />
            <mxPoint x="600" y="270" as="targetPoint" />
            <Array as="points">
              <mxPoint x="600" y="450" />
              <mxPoint x="635" y="450" />
              <mxPoint x="635" y="360" />
              <mxPoint x="600" y="360" />
            </Array>
          </mxGeometry>
        </mxCell>
        <mxCell id="GmR0d216pOpwCIbNAV7s-22" value="Dokumentasi &lt;br&gt;Surat Keluar" style="edgeLabel;html=1;align=left;verticalAlign=middle;resizable=0;points=[];strokeColor=#ff0000;" parent="GmR0d216pOpwCIbNAV7s-21" vertex="1" connectable="0">
          <mxGeometry x="0.3767" y="-1" relative="1" as="geometry">
            <mxPoint x="-1" y="61" as="offset" />
          </mxGeometry>
        </mxCell>
        <mxCell id="GmR0d216pOpwCIbNAV7s-23" value="&lt;font style=&quot;font-size: 14px;&quot;&gt;&lt;b&gt;Arsip&lt;/b&gt;&lt;/font&gt;" style="text;html=1;strokeColor=none;fillColor=none;align=center;verticalAlign=middle;whiteSpace=wrap;rounded=0;" parent="1" vertex="1">
          <mxGeometry x="840" y="150" width="60" height="30" as="geometry" />
        </mxCell>
        <mxCell id="GmR0d216pOpwCIbNAV7s-24" value="&lt;font style=&quot;font-size: 14px;&quot;&gt;&lt;b&gt;Surat Keluar&lt;/b&gt;&lt;/font&gt;" style="text;html=1;strokeColor=none;fillColor=none;align=center;verticalAlign=middle;whiteSpace=wrap;rounded=0;" parent="1" vertex="1">
          <mxGeometry x="840" y="110" width="60" height="30" as="geometry" />
        </mxCell>
        <mxCell id="GmR0d216pOpwCIbNAV7s-25" value="&lt;font style=&quot;font-size: 14px;&quot;&gt;&lt;b&gt;Surat Masuk&lt;/b&gt;&lt;/font&gt;" style="text;html=1;strokeColor=none;fillColor=none;align=center;verticalAlign=middle;whiteSpace=wrap;rounded=0;" parent="1" vertex="1">
          <mxGeometry x="840" y="60" width="60" height="50" as="geometry" />
        </mxCell>
        <mxCell id="mSuXqh9cYviVnFYbUiqK-2" value="" style="endArrow=classic;html=1;rounded=0;strokeColor=#00BA00;" parent="1" edge="1">
          <mxGeometry width="50" height="50" relative="1" as="geometry">
            <mxPoint x="750" y="260" as="sourcePoint" />
            <mxPoint x="750" y="180" as="targetPoint" />
            <Array as="points">
              <mxPoint x="750" y="260" />
            </Array>
          </mxGeometry>
        </mxCell>
        <mxCell id="mSuXqh9cYviVnFYbUiqK-3" value="Dapat &lt;br&gt;Dibaca" style="edgeLabel;html=1;align=center;verticalAlign=middle;resizable=0;points=[];" parent="mSuXqh9cYviVnFYbUiqK-2" vertex="1" connectable="0">
          <mxGeometry x="0.3695" y="-1" relative="1" as="geometry">
            <mxPoint x="-1" y="24" as="offset" />
          </mxGeometry>
        </mxCell>
        <mxCell id="mSuXqh9cYviVnFYbUiqK-4" value="" style="endArrow=classic;html=1;rounded=0;strokeColor=#0066CC;" parent="1" edge="1">
          <mxGeometry width="50" height="50" relative="1" as="geometry">
            <mxPoint x="640" y="590" as="sourcePoint" />
            <mxPoint x="720" y="360" as="targetPoint" />
            <Array as="points">
              <mxPoint x="720" y="590" />
            </Array>
          </mxGeometry>
        </mxCell>
        <mxCell id="mSuXqh9cYviVnFYbUiqK-5" value="Mendatakan &lt;br&gt;Surat Keluar" style="edgeLabel;html=1;align=center;verticalAlign=middle;resizable=0;points=[];" parent="mSuXqh9cYviVnFYbUiqK-4" vertex="1" connectable="0">
          <mxGeometry x="-0.0467" y="1" relative="1" as="geometry">
            <mxPoint y="-12" as="offset" />
          </mxGeometry>
        </mxCell>
        <mxCell id="mSuXqh9cYviVnFYbUiqK-7" value="&lt;font style=&quot;&quot;&gt;&lt;b style=&quot;&quot;&gt;&lt;font style=&quot;font-size: 14px;&quot;&gt;DFD Level 1&lt;/font&gt;&lt;/b&gt;&lt;br&gt;&lt;b style=&quot;&quot;&gt;&lt;font style=&quot;font-size: 18px;&quot;&gt;APLIKASI ADMINISTRASI DAN PENGARSIPAN SURAT&lt;/font&gt;&lt;/b&gt;&lt;br&gt;&lt;/font&gt;" style="text;html=1;strokeColor=none;fillColor=none;align=center;verticalAlign=middle;whiteSpace=wrap;rounded=0;" parent="1" vertex="1">
          <mxGeometry x="455.5" y="30" width="250" height="60" as="geometry" />
        </mxCell>
        <mxCell id="kqq5Vw9o1yBDBEciZ_FV-1" value="&lt;span style=&quot;font-size: 12px;&quot;&gt;&lt;b style=&quot;font-size: 12px;&quot;&gt;Pengelolaan&lt;br style=&quot;font-size: 12px;&quot;&gt;Akun&lt;br style=&quot;font-size: 12px;&quot;&gt;&lt;/b&gt;&lt;/span&gt;" style="ellipse;whiteSpace=wrap;html=1;aspect=fixed;fontSize=12;" parent="1" vertex="1">
          <mxGeometry x="370" y="510" width="80" height="80" as="geometry" />
        </mxCell>
        <mxCell id="kqq5Vw9o1yBDBEciZ_FV-3" value="&lt;font style=&quot;font-size: 14px;&quot;&gt;&lt;b&gt;Hak Akses&lt;/b&gt;&lt;/font&gt;" style="text;html=1;strokeColor=none;fillColor=none;align=center;verticalAlign=middle;whiteSpace=wrap;rounded=0;" parent="1" vertex="1">
          <mxGeometry x="840" y="190" width="60" height="30" as="geometry" />
        </mxCell>
        <mxCell id="kqq5Vw9o1yBDBEciZ_FV-4" value="" style="endArrow=none;html=1;rounded=0;strokeWidth=5;strokeColor=#BD7000;fillColor=#f0a30a;" parent="1" edge="1">
          <mxGeometry width="50" height="50" relative="1" as="geometry">
            <mxPoint x="910" y="204.57999999999993" as="sourcePoint" />
            <mxPoint x="960" y="204.57999999999993" as="targetPoint" />
          </mxGeometry>
        </mxCell>
        <mxCell id="kqq5Vw9o1yBDBEciZ_FV-6" value="&lt;font style=&quot;font-size: 14px;&quot;&gt;&lt;b&gt;Arsiparis Ahli Muda&lt;br&gt;(Superadmin)&lt;br&gt;&lt;/b&gt;&lt;/font&gt;" style="rounded=0;whiteSpace=wrap;html=1;" parent="1" vertex="1">
          <mxGeometry x="370" y="102" width="117" height="70" as="geometry" />
        </mxCell>
        <mxCell id="kqq5Vw9o1yBDBEciZ_FV-8" value="" style="endArrow=classic;html=1;rounded=0;strokeColor=#006600;" parent="1" edge="1">
          <mxGeometry width="50" height="50" relative="1" as="geometry">
            <mxPoint x="460" y="300" as="sourcePoint" />
            <mxPoint x="580" y="270" as="targetPoint" />
            <Array as="points">
              <mxPoint x="580" y="300" />
            </Array>
          </mxGeometry>
        </mxCell>
        <mxCell id="kqq5Vw9o1yBDBEciZ_FV-12" value="Data Surat Masuk" style="edgeLabel;html=1;align=center;verticalAlign=middle;resizable=0;points=[];" parent="kqq5Vw9o1yBDBEciZ_FV-8" vertex="1" connectable="0">
          <mxGeometry x="0.0019" y="1" relative="1" as="geometry">
            <mxPoint x="-15" as="offset" />
          </mxGeometry>
        </mxCell>
        <mxCell id="kqq5Vw9o1yBDBEciZ_FV-10" value="" style="endArrow=classic;html=1;rounded=0;strokeColor=#006600;" parent="1" edge="1">
          <mxGeometry width="50" height="50" relative="1" as="geometry">
            <mxPoint x="700" y="300" as="sourcePoint" />
            <mxPoint x="600" y="270" as="targetPoint" />
            <Array as="points">
              <mxPoint x="600" y="300" />
            </Array>
          </mxGeometry>
        </mxCell>
        <mxCell id="kqq5Vw9o1yBDBEciZ_FV-13" value="Data Surat Keluar" style="edgeLabel;html=1;align=center;verticalAlign=middle;resizable=0;points=[];" parent="kqq5Vw9o1yBDBEciZ_FV-10" vertex="1" connectable="0">
          <mxGeometry x="-0.1516" y="1" relative="1" as="geometry">
            <mxPoint x="5" y="-1" as="offset" />
          </mxGeometry>
        </mxCell>
        <mxCell id="kqq5Vw9o1yBDBEciZ_FV-20" value="" style="endArrow=classic;html=1;rounded=0;strokeColor=#00BA00;" parent="1" edge="1">
          <mxGeometry width="50" height="50" relative="1" as="geometry">
            <mxPoint x="560" y="220" as="sourcePoint" />
            <mxPoint x="490" y="130" as="targetPoint" />
            <Array as="points">
              <mxPoint x="560" y="220" />
              <mxPoint x="560" y="130" />
            </Array>
          </mxGeometry>
        </mxCell>
        <mxCell id="kqq5Vw9o1yBDBEciZ_FV-21" value="Dapat&lt;br&gt;Dibaca" style="edgeLabel;html=1;align=center;verticalAlign=middle;resizable=0;points=[];" parent="kqq5Vw9o1yBDBEciZ_FV-20" vertex="1" connectable="0">
          <mxGeometry x="-0.4073" y="1" relative="1" as="geometry">
            <mxPoint y="-2" as="offset" />
          </mxGeometry>
        </mxCell>
        <mxCell id="kqq5Vw9o1yBDBEciZ_FV-22" value="Dapat&lt;br&gt;Dibaca" style="edgeLabel;html=1;align=center;verticalAlign=middle;resizable=0;points=[];" parent="kqq5Vw9o1yBDBEciZ_FV-20" vertex="1" connectable="0">
          <mxGeometry x="-0.4073" y="1" relative="1" as="geometry">
            <mxPoint x="51" y="-2" as="offset" />
          </mxGeometry>
        </mxCell>
        <mxCell id="kqq5Vw9o1yBDBEciZ_FV-23" value="" style="endArrow=classic;html=1;rounded=0;strokeColor=#00BA00;" parent="1" edge="1">
          <mxGeometry width="50" height="50" relative="1" as="geometry">
            <mxPoint x="409.66" y="260" as="sourcePoint" />
            <mxPoint x="409.66" y="180" as="targetPoint" />
            <Array as="points">
              <mxPoint x="409.66" y="260" />
            </Array>
          </mxGeometry>
        </mxCell>
        <mxCell id="kqq5Vw9o1yBDBEciZ_FV-24" value="Dapat &lt;br&gt;Dibaca" style="edgeLabel;html=1;align=center;verticalAlign=middle;resizable=0;points=[];" parent="kqq5Vw9o1yBDBEciZ_FV-23" vertex="1" connectable="0">
          <mxGeometry x="0.3695" y="-1" relative="1" as="geometry">
            <mxPoint x="-1" y="24" as="offset" />
          </mxGeometry>
        </mxCell>
        <mxCell id="kqq5Vw9o1yBDBEciZ_FV-27" value="" style="endArrow=classic;html=1;rounded=0;strokeColor=#615868;fillColor=#fa6800;" parent="1" edge="1">
          <mxGeometry width="50" height="50" relative="1" as="geometry">
            <mxPoint x="360" y="160" as="sourcePoint" />
            <mxPoint x="360" y="400" as="targetPoint" />
            <Array as="points">
              <mxPoint x="360" y="160" />
              <mxPoint x="340" y="160" />
              <mxPoint x="340" y="400" />
            </Array>
          </mxGeometry>
        </mxCell>
        <mxCell id="kqq5Vw9o1yBDBEciZ_FV-28" value="Mengawasi&lt;br&gt;&lt;div style=&quot;&quot;&gt;Data&lt;/div&gt;" style="edgeLabel;html=1;align=center;verticalAlign=middle;resizable=0;points=[];" parent="kqq5Vw9o1yBDBEciZ_FV-27" vertex="1" connectable="0">
          <mxGeometry x="0.3695" y="-1" relative="1" as="geometry">
            <mxPoint x="1" y="28" as="offset" />
          </mxGeometry>
        </mxCell>
        <mxCell id="kqq5Vw9o1yBDBEciZ_FV-30" value="" style="endArrow=classic;html=1;rounded=0;strokeColor=#c17e1e;fillColor=#fa6800;" parent="1" edge="1">
          <mxGeometry width="50" height="50" relative="1" as="geometry">
            <mxPoint x="360" y="540" as="sourcePoint" />
            <mxPoint x="360" y="140" as="targetPoint" />
            <Array as="points">
              <mxPoint x="310" y="540" />
              <mxPoint x="310" y="140" />
            </Array>
          </mxGeometry>
        </mxCell>
        <mxCell id="kqq5Vw9o1yBDBEciZ_FV-31" value="Jumlah &lt;br&gt;Hak Akses" style="edgeLabel;html=1;align=center;verticalAlign=middle;resizable=0;points=[];" parent="kqq5Vw9o1yBDBEciZ_FV-30" vertex="1" connectable="0">
          <mxGeometry x="0.3695" y="-1" relative="1" as="geometry">
            <mxPoint x="1" y="172" as="offset" />
          </mxGeometry>
        </mxCell>
        <mxCell id="kqq5Vw9o1yBDBEciZ_FV-32" value="" style="endArrow=classic;html=1;rounded=0;strokeColor=#c17e1e;fillColor=#fa6800;" parent="1" edge="1">
          <mxGeometry width="50" height="50" relative="1" as="geometry">
            <mxPoint x="460" y="540" as="sourcePoint" />
            <mxPoint x="520" y="560" as="targetPoint" />
            <Array as="points">
              <mxPoint x="500" y="540" />
              <mxPoint x="500" y="560" />
            </Array>
          </mxGeometry>
        </mxCell>
        <mxCell id="kqq5Vw9o1yBDBEciZ_FV-33" value="Hak Akses" style="edgeLabel;html=1;align=center;verticalAlign=middle;resizable=0;points=[];" parent="kqq5Vw9o1yBDBEciZ_FV-32" vertex="1" connectable="0">
          <mxGeometry x="0.3695" y="-1" relative="1" as="geometry">
            <mxPoint x="1" y="-15" as="offset" />
          </mxGeometry>
        </mxCell>
        <mxCell id="kqq5Vw9o1yBDBEciZ_FV-34" value="" style="endArrow=classic;html=1;rounded=0;strokeColor=#c17e1e;fillColor=#fa6800;" parent="1" edge="1">
          <mxGeometry width="50" height="50" relative="1" as="geometry">
            <mxPoint x="460" y="560" as="sourcePoint" />
            <mxPoint x="800" y="130" as="targetPoint" />
            <Array as="points">
              <mxPoint x="480" y="560" />
              <mxPoint x="480" y="630" />
              <mxPoint x="820" y="630" />
              <mxPoint x="820" y="130" />
            </Array>
          </mxGeometry>
        </mxCell>
        <mxCell id="kqq5Vw9o1yBDBEciZ_FV-35" value="Hak Akses" style="edgeLabel;html=1;align=center;verticalAlign=middle;resizable=0;points=[];" parent="kqq5Vw9o1yBDBEciZ_FV-34" vertex="1" connectable="0">
          <mxGeometry x="0.3695" y="-1" relative="1" as="geometry">
            <mxPoint x="-1" y="21" as="offset" />
          </mxGeometry>
        </mxCell>
        <mxCell id="kqq5Vw9o1yBDBEciZ_FV-36" value="" style="endArrow=none;html=1;rounded=0;strokeWidth=5;strokeColor=#432D57;fillColor=#76608a;" parent="1" edge="1">
          <mxGeometry width="50" height="50" relative="1" as="geometry">
            <mxPoint x="910" y="244.57999999999993" as="sourcePoint" />
            <mxPoint x="960" y="244.57999999999993" as="targetPoint" />
          </mxGeometry>
        </mxCell>
        <mxCell id="kqq5Vw9o1yBDBEciZ_FV-37" value="&lt;font style=&quot;font-size: 14px;&quot;&gt;&lt;b&gt;Data Surat&lt;/b&gt;&lt;/font&gt;" style="text;html=1;strokeColor=none;fillColor=none;align=center;verticalAlign=middle;whiteSpace=wrap;rounded=0;" parent="1" vertex="1">
          <mxGeometry x="840" y="230" width="60" height="30" as="geometry" />
        </mxCell>
        <mxCell id="kqq5Vw9o1yBDBEciZ_FV-39" value="&lt;span style=&quot;font-size: 12px;&quot;&gt;&lt;b style=&quot;font-size: 12px;&quot;&gt;Data &lt;br&gt;Pembuatan&lt;br&gt;Surat&lt;br style=&quot;font-size: 12px;&quot;&gt;&lt;/b&gt;&lt;/span&gt;" style="ellipse;whiteSpace=wrap;html=1;aspect=fixed;fontSize=12;" parent="1" vertex="1">
          <mxGeometry x="370" y="390" width="80" height="80" as="geometry" />
        </mxCell>
        <mxCell id="kqq5Vw9o1yBDBEciZ_FV-40" value="" style="endArrow=classic;html=1;rounded=0;strokeColor=#c17e1e;fillColor=#fa6800;" parent="1" edge="1">
          <mxGeometry width="50" height="50" relative="1" as="geometry">
            <mxPoint x="360" y="120" as="sourcePoint" />
            <mxPoint x="360" y="570" as="targetPoint" />
            <Array as="points">
              <mxPoint x="280" y="120" />
              <mxPoint x="280" y="570" />
            </Array>
          </mxGeometry>
        </mxCell>
        <mxCell id="kqq5Vw9o1yBDBEciZ_FV-41" value="Mengatur&lt;br&gt;Hak Akses" style="edgeLabel;html=1;align=center;verticalAlign=middle;resizable=0;points=[];" parent="kqq5Vw9o1yBDBEciZ_FV-40" vertex="1" connectable="0">
          <mxGeometry x="0.3695" y="-1" relative="1" as="geometry">
            <mxPoint x="1" y="12" as="offset" />
          </mxGeometry>
        </mxCell>
        <mxCell id="kqq5Vw9o1yBDBEciZ_FV-42" value="" style="endArrow=classic;html=1;rounded=0;fillColor=#f8cecc;strokeColor=#432D57;" parent="1" edge="1">
          <mxGeometry width="50" height="50" relative="1" as="geometry">
            <mxPoint x="530" y="530" as="sourcePoint" />
            <mxPoint x="460" y="420" as="targetPoint" />
            <Array as="points">
              <mxPoint x="530" y="420" />
            </Array>
          </mxGeometry>
        </mxCell>
        <mxCell id="kqq5Vw9o1yBDBEciZ_FV-43" value="Mengawasi &lt;br&gt;Data&amp;nbsp;" style="edgeLabel;html=1;align=center;verticalAlign=middle;resizable=0;points=[];" parent="kqq5Vw9o1yBDBEciZ_FV-42" vertex="1" connectable="0">
          <mxGeometry x="0.3767" y="-1" relative="1" as="geometry">
            <mxPoint x="4" y="41" as="offset" />
          </mxGeometry>
        </mxCell>
        <mxCell id="kqq5Vw9o1yBDBEciZ_FV-45" value="" style="endArrow=classic;html=1;rounded=0;fillColor=#f8cecc;strokeColor=#432D57;" parent="1" edge="1">
          <mxGeometry width="50" height="50" relative="1" as="geometry">
            <mxPoint x="410" y="480" as="sourcePoint" />
            <mxPoint x="800" y="310" as="targetPoint" />
            <Array as="points">
              <mxPoint x="410" y="500" />
              <mxPoint x="330" y="500" />
              <mxPoint x="330" y="650" />
              <mxPoint x="850" y="650" />
              <mxPoint x="850" y="310" />
            </Array>
          </mxGeometry>
        </mxCell>
        <mxCell id="kqq5Vw9o1yBDBEciZ_FV-46" value="Mengawasi &lt;br&gt;Data&amp;nbsp;" style="edgeLabel;html=1;align=center;verticalAlign=middle;resizable=0;points=[];" parent="kqq5Vw9o1yBDBEciZ_FV-45" vertex="1" connectable="0">
          <mxGeometry x="0.3767" y="-1" relative="1" as="geometry">
            <mxPoint x="-1" y="-235" as="offset" />
          </mxGeometry>
        </mxCell>
      </root>
    </mxGraphModel>
  </diagram>
</mxfile>
